<svg height="512pt" viewBox="-48 0 512 512" width="512pt" xmlns="http://www.w3.org/2000/svg"><path d="m399.53125 30h1.066406c8.285156 0 15-6.714844 15-15s-6.714844-15-15-15h-345.433594c-30.417968 0-55.164062 24.746094-55.164062 55.167969v401.667969c0 30.417968 24.746094 55.164062 55.164062 55.164062h305.269532c30.417968 0 55.167968-24.746094 55.167968-55.164062v-321.335938c0-15.152344-6.144531-28.894531-16.066406-38.875v-66.625zm-344.367188 0h314.367188v51.097656c-2.960938-.492187-6-.761718-9.101562-.761718h-305.265626c-13.875 0-25.164062-11.289063-25.164062-25.167969 0-13.878907 11.289062-25.167969 25.164062-25.167969zm330.4375 426.835938c0 13.875-11.292968 25.164062-25.167968 25.164062h-305.269532c-13.875 0-25.164062-11.289062-25.164062-25.164062v-352.582032c7.550781 3.886719 16.105469 6.082032 25.164062 6.082032h305.269532c5.410156 0 10.421875 1.722656 14.53125 4.636718.359375.296875.730468.578125 1.117187.84375 5.792969 4.613282 9.519531 11.71875 9.519531 19.683594zm0 0"/><path d="m325.3125 241.875-112.46875-40.167969c-3.261719-1.164062-6.828125-1.164062-10.089844 0l-112.46875 40.167969c-5.96875 2.132812-9.953125 7.785156-9.953125 14.125s3.984375 11.992188 9.953125 14.125l22.183594 7.921875v69.761719c0 6.339844 3.984375 11.992187 9.953125 14.125l80.332031 28.691406c1.632813.582031 3.339844.875 5.046875.875s3.414063-.292969 5.042969-.875l80.335938-28.691406c5.96875-2.132813 9.953124-7.785156 9.953124-14.125v-69.761719l22.179688-7.921875c5.96875-2.132812 9.953125-7.785156 9.953125-14.125s-3.984375-11.992188-9.953125-14.125zm-117.511719-10.113281 67.867188 24.238281-67.867188 24.238281-67.871093-24.238281zm65.332031 105.476562-65.332031 23.332031-65.332031-23.332031v-48.476562l60.285156 21.53125c1.632813.582031 3.339844.875 5.046875.875s3.414063-.292969 5.042969-.875l60.289062-21.53125zm0 0"/></svg>